
<svg version="1.1" id="Layer_1" xmlns="http://www.w3.org/2000/svg" xmlns:xlink="http://www.w3.org/1999/xlink" x="0px" y="0px"
   viewBox="0 0 180 180" style="enable-background:new 0 0 180 180;" xml:space="preserve">

  <defs>
    <style>
      .cls-1 {
        fill: none;
      }

      .cls-2 {
        fill: #f8f8f8;
      }

      .cls-3 {
        fill: #fff;
        opacity: 0.3;
      }

      .cls-4 {
        opacity: 0.2;
      }

      .cls-5 {
        fill: #1a1a1a;
      }
    </style>
  </defs>
  <g>
    <rect class="cls-1" width="180" height="180"/>
    <g>
      <path class="cls-2" d="M90,28.11a31.57,31.57,0,0,1,8.46,1l2.16.36.25,2.26,2,17.88.17,1.55h7.61l.3-1.37L114.4,34.4l.52-2.34h2.31c6.23,0,10.74,1.51,16.15,4.49l1.77,1V76.4h0v23.75h6.48V60.56a7.94,7.94,0,0,1,7.93-7.93h2.64a7.94,7.94,0,0,1,7.93,7.93v92.23a7.93,7.93,0,0,1-7.93,7.92h-2.64a7.93,7.93,0,0,1-7.93-7.92V113.2h-6.46l0,1.71c-.07,3.7-.34,7.59-1.86,10.93-2.15,4.75-5.05,7.65-12.11,9.15h0c-1.9.37-3.31.62-3.37.63h-.1a184.67,184.67,0,0,1-27.27,1.67,185.25,185.25,0,0,1-27.18-1.65h-.07c-.35,0-.37-.18-3.47-.78h-.08c-6.68-1.53-10.92-4.54-13-9.2-1.44-3.3-1.7-7.11-1.77-10.74l0-1.71H38.38v39.59a7.93,7.93,0,0,1-7.93,7.92H27.81a7.93,7.93,0,0,1-7.93-7.92V60.56a7.94,7.94,0,0,1,7.93-7.93h2.64a7.94,7.94,0,0,1,7.93,7.93v39.58h6.48V37.53l1.77-1c5.41-3,9.92-4.49,16.15-4.49H65.1l.51,2.34L69,49.82l.31,1.37h7.6l.17-1.55,2-17.88.25-2.26,2.16-.36a31.6,31.6,0,0,1,8.47-1"/>
      <path class="cls-3" d="M60.47,32.69C48.21,41.09,46.86,64.3,46.86,64.3c-.93-.38-1.79-1.29-1.79-1.88,0-11.48.12-26.12.12-26.12S64,30.3,60.47,32.69Z"/>
      <path class="cls-3" d="M93.38,30.21c-13.66,2.5-16.18,22.4-16.18,22.4.92-14.88,4-23.42,4-23.42S97.27,29.5,93.38,30.21Z"/>
      <path class="cls-3" d="M124.52,34.34c-8.86,4.69-14.28,18.27-14.28,18.27-.5-4.83,6.23-21.62,6.23-21.62S127.83,32.59,124.52,34.34Z"/>
      <path class="cls-4" d="M155,54.21c0,.24.06,3.66.06,3.92v92.23a5.69,5.69,0,0,1-5.69,5.69h-4.83c-.7,0,3,4.58,5.85,4.58H153a5.69,5.69,0,0,0,5.69-5.69V59.54A5.68,5.68,0,0,0,155,54.21Z"/>
      <rect class="cls-4" x="38.38" y="100.14" width="5.89" height="12.2"/>
      <rect class="cls-4" x="134.37" y="99.94" width="7.04" height="12.57"/>
      <path class="cls-5" d="M152.19,50.89h-2.64a9.68,9.68,0,0,0-9.67,9.67V98.4h-3V80.6h0V36.5L134.22,35c-5.67-3.13-10.46-4.71-17-4.71h-3.71L112.7,34l-3.41,15.43h-4.65l-2-17.89-.4-3.56A64.89,64.89,0,0,0,90,26.37,64.91,64.91,0,0,0,77.8,28l-.4,3.56-2,17.89H70.72L67.31,34l-.82-3.7H62.78c-6.53,0-11.32,1.58-17,4.71L43.12,36.5V98.4h-3V60.56a9.68,9.68,0,0,0-9.67-9.67H27.81a9.68,9.68,0,0,0-9.67,9.67v92.23a9.68,9.68,0,0,0,9.67,9.66h2.64a9.68,9.68,0,0,0,9.67-9.66V114.94h3c.08,4.22.43,8,1.91,11.4,2.27,5.2,6.91,8.54,14.16,10.21l.07,0h.07c3.11.6,3.17.76,3.65.8a185.48,185.48,0,0,0,27.4,1.67,186.35,186.35,0,0,0,27.49-1.68h.17c.06,0,1.5-.26,3.42-.64h0c7.65-1.62,10.94-4.85,13.34-10.14,1.57-3.45,1.93-7.31,2-11.62h3v37.85a9.68,9.68,0,0,0,9.67,9.66h2.64a9.68,9.68,0,0,0,9.67-9.66V60.56A9.68,9.68,0,0,0,152.19,50.89Zm-116,101.9a5.69,5.69,0,0,1-5.69,5.69H27.81a5.69,5.69,0,0,1-5.69-5.69V60.56a5.7,5.7,0,0,1,5.69-5.7h2.64a5.69,5.69,0,0,1,5.69,5.7Zm11-113.94.62-.34c5.08-2.8,9.22-4.22,15.07-4.22h.52l.13.59L66.84,50.3l.69,3.12H78.92l.4-3.53,2-17.88.06-.59a35.06,35.06,0,0,1,17.19,0l.06.59,2,17.88.4,3.53h11.39l.69-3.12,3.41-15.42.13-.59h.52c5.85,0,10,1.42,15.07,4.22l.62.34V72.74h0v4.67H47.09V38.85Zm-7,63.53h3v6.81c0,.54,0,1.07,0,1.59V111h-3Zm20,30.29c-13.68-3.14-13-11.59-13-23.48V81.38H88v53.69a172.9,172.9,0,0,1-24.62-1.64S63.58,133.35,60.09,132.67Zm60.61.14c-1.9.37-3.32.62-3.32.62A177.36,177.36,0,0,1,92,135.07V81.38h40.92v27.81C132.91,121.25,135,129.78,120.7,132.81ZM136.89,111v-.19c0-.52,0-1.06,0-1.59v-6.81h3V111Zm21,41.82a5.69,5.69,0,0,1-5.69,5.69h-2.64a5.69,5.69,0,0,1-5.69-5.69V60.56a5.69,5.69,0,0,1,5.69-5.7h2.64a5.7,5.7,0,0,1,5.69,5.7Z"/>
      <path class="cls-4" d="M135.66,43.31l-2.61-5.5c-2,12-1,59.61-17.18,75-12,11.41-19.31,13.41-24.47,13.68v0a13.61,13.61,0,0,1-1.43.06,13.17,13.17,0,0,1-1.41-.06v0c-5.16-.27-12.49-2.27-24.47-13.68-7.06-6.72-9.72-19.6-12.22-33h-7.7c.25,21.23,1.22,44.63,4.19,48.93,0,0,3.08,8.16,40.36,8.52h2.52c37.28-.36,40.36-8.52,40.36-8.52C137.24,120.6,135.66,43.31,135.66,43.31Z"/>
      <path class="cls-4" d="M33.16,54.21c0,.24.05,3.66.05,3.92v92.23a5.69,5.69,0,0,1-5.69,5.69H22.94c-.69,0,2.76,4.58,5.6,4.58h2.64a5.7,5.7,0,0,0,5.7-5.69V59.54A5.68,5.68,0,0,0,33.16,54.21Z"/>
    </g>
  </g>
</svg>
