
<svg version="1.1" id="Layer_1" xmlns="http://www.w3.org/2000/svg" xmlns:xlink="http://www.w3.org/1999/xlink" x="0px" y="0px"
   viewBox="0 0 180 180" style="enable-background:new 0 0 180 180;" xml:space="preserve">

  <defs>
    <style>
      .cls-1 {
        fill: none;
      }

      .cls-2 {
        fill: #f8f8f8;
      }

      .cls-3, .cls-4 {
        opacity: 0.2;
      }

      .cls-4, .cls-6 {
        fill: #fff;
      }

      .cls-5 {
        fill: #1a1a1a;
      }
    </style>
  </defs>
  <g>
    <rect class="cls-1" width="180" height="180"/>
    <g>
      <path class="cls-2" d="M137.63,140.1c-1.35-3-3.65-4-6.61-5.74-3.94-17.74-2.88-26.52-1.75-29.94,3.27-9.88,4.82-19,4.61-27.26a53.61,53.61,0,0,0-1.25-9.73c1-2.18,3.37-5.15,4.49-10.55,4.29-20.79-.25-26.62-.25-26.62A39,39,0,0,0,118.8,22a99,99,0,0,0-16.75-1.86,88,88,0,0,0-18.75,2c-2.06,0-9.13.2-14.06,1.63a36.34,36.34,0,0,0-21.3,15.4,49,49,0,0,0-7.59,19.09A86.79,86.79,0,0,0,26.56,84.78a76.44,76.44,0,0,0-3.39,23.65A75.58,75.58,0,0,0,28,134.66a12.85,12.85,0,0,1,1.14,6.92c-.16,1.43-1.5,7.64-1.5,7.64s4.93,3.31,8.67,3.46l1.23,0v7.18H139.45v-5.41C139.47,148.62,139.63,144.5,137.63,140.1Zm-90-6.56c-2-6.29-5-15-4.34-23q.09-1,.24-2.07a70.06,70.06,0,0,0,12.66-1.76C50.16,117.72,48.08,130.32,47.67,133.54Z"/>
      <path class="cls-3" d="M38.11,160.9c6.6-3.09,11.34-9.42,11.56-18.44.12-5-2.42,1.94-5.74,5.21a17,17,0,0,1-6.58,3.71Z"/>
      <path class="cls-3" d="M54.27,83.21C45.4,85.6,36.37,93.75,36.13,110a38,38,0,0,0,10.45,26.43s-7-20.37-4.13-27.45c6.66-16.19,15.8-19,15.8-19Z"/>
      <path class="cls-4" d="M90,138.38c43.11,0,47.59,4.76,47.59,4.76h.58c-1.93-10.19-24.51-11.31-24.51-11.31H66.49s-12.89.44-20.07,5l1,4.51C53.1,140,65.11,138.38,90,138.38Z"/>
      <path class="cls-4" d="M136.87,30.26c-2.25-1.06-9.68-4.64-25.8-4.64s-23.87,7.3-23.87,7.3-1.53-7.13-4.09-7.13-27.73-.4-33.58,27.49a53.49,53.49,0,0,0-.49,8,68.89,68.89,0,0,0-19.36,36c-4.35,22.78,6.73,34.72,6.4,43.77s-2.3,11.51-2.3,11.51l-6.16-3.34,1.55-8.68S23,124.41,23.28,110.59s1.89-30.2,17.07-52.34c0,0,8.27-31.61,30-34.68S83.3,22.13,83.3,22.13s28.28-6.75,49.52,4.51Z"/>
      <g>
        <path class="cls-5" d="M70.13,55.08c4.23-3.35-.83-9.84-6-7.74s-6.65,11.11-6.65,11.11C62.6,54,65.05,59.1,70.13,55.08Z"/>
        <path class="cls-5" d="M139.55,141a15.66,15.66,0,0,0-6.66-7.25c-4.08-18.39-3-25.21-1.86-28.75,3.38-10.24,5-19.75,4.78-28.26a42.41,42.41,0,0,0-1-8.67,91.73,91.73,0,0,0,4.36-12.36c2.94-10.81,3-19.71.22-26.45l-.47-1.14-1-.71a50.6,50.6,0,0,0-17.73-7.85,74.72,74.72,0,0,0-17.37-1.93,91.9,91.9,0,0,0-19.44,2.06c-2.13,0-9.46.21-14.58,1.69a37.69,37.69,0,0,0-22.08,16,50.68,50.68,0,0,0-7.86,19.79,89.67,89.67,0,0,0-14.29,27.5A79,79,0,0,0,21,109.1,72.34,72.34,0,0,0,26.39,136a15,15,0,0,1,.82,7.52,25.46,25.46,0,0,1-.65,3.52L26,149.37l1.75,1.74a11.69,11.69,0,0,0,6.94,3.25s.28,0,1.11,0h.16v2.45c0,.53,0,1.07,0,1.61v4H141.58v-4c0-.54,0-1.08,0-1.6C141.6,150.76,141.62,145.51,139.55,141ZM127,103.6c-2.18,6.59-1.36,16.16,1.1,28-1.05-.33-2.15-.62-3.34-.87h0c-1.94-.39-3.39-.64-3.45-.65l-.08,0H121a256.28,256.28,0,0,0-31.9-1.69,255.27,255.27,0,0,0-31.81,1.68c-.48,0-1.95.21-5.07.81l-.07,0h-.07l-.28.07c.47-3.88,2.22-15.06,7.56-24.48l.13-.2a29.65,29.65,0,0,0,12-11.13,4.48,4.48,0,0,0,.35-.85,17.58,17.58,0,0,0,3.21.29c6.28,0,11.92-3.19,15.63-6.69,3,10.22,5.13,12.55,6.71,13.38a3.63,3.63,0,0,0,1.67.42,3.42,3.42,0,0,0,1.36-.28c13.7-6,25.48-20.46,30.83-27.8C131.87,79.46,131.6,89.54,127,103.6ZM47.48,131.27c-1.45-5.57-3-12.61-2.57-19.65,0-.62.1-1.23.18-1.84a35.17,35.17,0,0,0,8.44-1.21A78.51,78.51,0,0,0,47.48,131.27ZM35.75,150.09h-.59a7.44,7.44,0,0,1-4.43-2,31.67,31.67,0,0,0,.75-4.12,19.34,19.34,0,0,0-1.16-9.74c-1.7-3.81-15.73-38.27,12.37-75.06l.28-.37.05-.46a46,46,0,0,1,7.25-18.6A33.51,33.51,0,0,1,70,25.46c5.27-1.53,13.8-1.53,13.89-1.53h0a86.22,86.22,0,0,1,18.93-2.05h0c10.16,0,22.61,1.83,32.6,9,5.84,14.09-5.16,36.81-5.16,36.81h0c-2.7,4-15.82,22.69-31,29.6-.62-.66-2.46-3.35-5.15-13.4-1.73-6.48-2.93-12.74-2.94-12.8a2.15,2.15,0,1,0-4.22.81c0,.05,1,5.27,2.51,11.16a22,22,0,0,1-7.86,5.86,14.76,14.76,0,0,1-12,.25,3,3,0,0,0-.4-.12l-12.5-5.5a4.39,4.39,0,0,0-1.77-.37,4.15,4.15,0,0,0-1.66.34A4.23,4.23,0,0,0,50.94,86c-.11.27-2,4.82-6,6.59a18.52,18.52,0,0,1-7.36,1.74,10.18,10.18,0,0,1-1.53-.11,8,8,0,0,0-1.28-.11,6.33,6.33,0,0,0-6.12,4.07c-.36,1-1.24,4.63,2.84,8a17.94,17.94,0,0,0,9.29,3.47c-1.54,13.82,4.65,27.62,4.56,31.91-.07,3.83-2,6.94-7.78,8.45A11.39,11.39,0,0,1,35.75,150.09Zm101.83,8.36H39.92c0-1.64,0-3.22,0-4.73h0c7.84-2.53,9.64-7.94,9.72-12.15a18.75,18.75,0,0,0-.65-4.46l-.22-1A26.25,26.25,0,0,1,53,134.8a45.73,45.73,0,0,1,4.74-.76,251,251,0,0,1,31.39-1.66A250.82,250.82,0,0,1,120.53,134s1.43.24,3.35.62C138.28,137.72,137.58,146.3,137.58,158.45Z"/>
      </g>
      <path class="cls-6" d="M67.8,93.11,55,87.47s-2.36,6.41-8.3,9c-5.2,2.28-9.14,2.29-11.31,1.94-2.61-.43-4.06,2-1.15,4.36,4.28,3.5,14.71,3.68,22.49.09A25.36,25.36,0,0,0,67.8,93.11Z"/>
      <path class="cls-3" d="M69.8,90.44c13.84-3.9,16.86-24.66,18.28-19.16S91.8,84.76,91.8,84.76s-7.27,6.74-12.06,7.63S69.8,90.44,69.8,90.44Z"/>
      <path class="cls-3" d="M94.49,46.45s32.08-5.09,40.13,13.7c.66,1.54,4.55-5.5,5.47-13.66.72-6.46-1.43-14.3-1.43-14.3A58.86,58.86,0,0,0,94.49,46.45Z"/>
      <path class="cls-3" d="M54.77,132.14C60.31,113.81,74.68,101.53,89,111c19.57,13,24.24,19.76,24.24,19.76l17.95,5.54-3.82-23.67s5.92-22,6.49-23.49-1.52-22.53-1.52-22.53L114.15,90,98.68,99.87,91.8,84.76l-7.63,5.57L70.23,92.05l-5,8.4-9.16,5.15-6.69,27.11Z"/>
    </g>
  </g>
</svg>
