
<svg version="1.1" id="Layer_1" xmlns="http://www.w3.org/2000/svg" xmlns:xlink="http://www.w3.org/1999/xlink" x="0px" y="0px"
   viewBox="0 0 180 180" style="enable-background:new 0 0 180 180;" xml:space="preserve">

<defs>
  <style>
    .cls-1 {
      fill: none;
    }

    .cls-2 {
      fill: #f8f8f8;
    }

    .cls-3 {
      fill: #fff;
    }

    .cls-3, .cls-4 {
      opacity: 0.2;
    }

    .cls-5 {
      fill: #1a1a1a;
    }
  </style>
</defs>
<rect class="cls-1" width="180" height="180"/>
<g>
  <path class="cls-2" d="M90.58,18.48l.19.23c8,9.71,13.55,13.82,26.31,23a34.52,34.52,0,0,1,14,22.45l.17,1,.9.37,17.25,7-22.8,58.08-.72,1.84,1.91.5c5.68,1.49,9.31,4,11.43,7.79,2.43,4.39,2.42,9.86,2.4,16.19v3.87H39.51v-3.87c0-6.33,0-11.8,2.4-16.19,2.12-3.83,5.75-6.3,11.43-7.79l1.92-.5-.73-1.84L31.73,72.43l17.26-7,.9-.37.17-1a34.5,34.5,0,0,1,14-22.44c12.76-9.16,18.26-13.27,26.31-23l.19-.23"/>
  <polygon class="cls-3" points="33.01 73.13 35.65 80.61 47.98 68.14 47.29 66.86 33.01 73.13"/>
  <path class="cls-3" d="M90.65,138.7c43,0,47.52,4.76,47.52,4.76h.58c-1.93-10.18-24.48-11.3-24.48-11.3H67.19s-23.35.81-24.65,11.3h.59S47.6,138.7,90.65,138.7Z"/>
  <path class="cls-3" d="M90.58,19.72V30.29s.41,5-8.45,10.13S60.69,48.28,53.26,58.85s.29-4,.29-4S57,45.71,68.4,37.71,84,28.86,90.58,19.72Z"/>
  <path class="cls-4" d="M51,65.28c8.1,9.23,39,29.27,39,29.27s27.7-19.82,29.5-29.95-2.7-19.82-7.66-25c0,0,8.56.45,15.54,14.64s4.51,14.19,4.51,14.19L90.38,110.54s-20.17-17.84-26.13-25c-5.63-6.75-15.31-17.79-15.31-17.79Z"/>
  <path class="cls-4" d="M85.24,105.06s-11.38,15.11-29,24.27S79,124.56,91.85,110.28Z"/>
  <path class="cls-4" d="M142.85,70.91s-10,26-25,42.23c-15.73,17-15.76,16.49-15.76,16.49l24.12,3.1,22.35-58.87Z"/>
  <path class="cls-5" d="M128.26,131.15l22.58-57.5a2.38,2.38,0,0,0-1.32-3.08l-16.68-6.74a36.39,36.39,0,0,0-14.73-23.57c-12.63-9.06-18.07-13.12-26-22.67h0a2,2,0,0,0-3.08,0h0c-7.92,9.55-13.36,13.61-26,22.67A36.31,36.31,0,0,0,48.33,63.83L31.65,70.57a2.39,2.39,0,0,0-1.33,3.08l22.58,57.5c-6.15,1.61-10.19,4.42-12.52,8.64-2.66,4.79-2.64,10.47-2.63,17,0,.53,0,1.07,0,1.62v4H143.41v-5.62c0-6.57,0-12.25-2.62-17C138.45,135.57,134.41,132.76,128.26,131.15Zm18.26-57.47-22.24,56.65c-.51-.09-1-.16-1.58-.24a250.56,250.56,0,0,0-31.54-1.72c-9.14,0-17.06.27-24,.81C84.31,120,99.82,106.1,110.61,95a280.55,280.55,0,0,0,22.85-26.6ZM65.4,43.52C77.19,35.05,83.13,30.64,90.58,22,98,30.64,104,35.05,115.77,43.52a31.65,31.65,0,0,1,12.4,17.73,36.29,36.29,0,0,1,1.1,6,280.83,280.83,0,0,1-21.57,25,231.35,231.35,0,0,1-17.11,16,228.76,228.76,0,0,1-17.12-16,281.44,281.44,0,0,1-21.58-25,36.29,36.29,0,0,1,1.1-6A31.67,31.67,0,0,1,65.4,43.52ZM47.7,68.4A282.14,282.14,0,0,0,70.55,95c4.79,4.93,10.51,10.41,16.89,15.79-12.53,10-23,15.73-30.79,19l-22-56.07Zm91.7,90H41.77c0-13.07-.82-22,17.22-24.38l.57-.09a257.46,257.46,0,0,1,31.6-1.6,246.17,246.17,0,0,1,31,1.69C140.21,136.44,139.4,145.38,139.4,158.45Z"/>
</g>
</svg>
