<?xml version="1.0" encoding="utf-8"?>
<!-- Generator: Adobe Illustrator 25.0.0, SVG Export Plug-In . SVG Version: 6.00 Build 0)  -->
<svg version="1.1" id="Layer_1" xmlns="http://www.w3.org/2000/svg" xmlns:xlink="http://www.w3.org/1999/xlink" x="0px" y="0px"
	 viewBox="0 0 180 180" style="enable-background:new 0 0 180 180;" xml:space="preserve">
<style type="text/css">
	.st0{fill:#FFFFFF;stroke:#000000;stroke-width:4;stroke-miterlimit:10;}
	.st1{fill:none;stroke:#000000;stroke-width:3.5;stroke-miterlimit:10;}
</style>
<polygon class="st0" points="136.3,45.2 137.8,22.4 120.4,22.4 120.4,35.1 98.3,35.1 98.3,22.4 81.1,22.4 81.1,35.1 59,35.1 
	59,22.4 41.6,22.4 44.2,64.9 44.2,64.9 135.2,65.1 "/>
<polygon class="st0" points="89.6,65.1 135.6,65.1 129.8,121.3 89.6,127.4 "/>
<polygon class="st0" points="43.6,65.1 89.6,65.1 89.6,127.4 49.4,121.3 "/>
<rect x="21.1" y="41.3" class="st0" width="14.1" height="116.3"/>
<rect x="144.8" y="41.3" class="st0" width="14.1" height="116.3"/>
<line class="st1" x1="35.2" y1="97.6" x2="46.5" y2="97.6"/>
<line class="st1" x1="35.2" y1="112" x2="46.5" y2="112"/>
<line class="st1" x1="133.5" y1="97.6" x2="144.8" y2="97.6"/>
<line class="st1" x1="132.2" y1="113" x2="143.4" y2="113"/>
</svg>
