<?xml version="1.0" encoding="utf-8"?>
<!-- Generator: Adobe Illustrator 25.0.0, SVG Export Plug-In . SVG Version: 6.00 Build 0)  -->
<svg version="1.1" id="Layer_1" xmlns="http://www.w3.org/2000/svg" xmlns:xlink="http://www.w3.org/1999/xlink" x="0px" y="0px"
	 viewBox="0 0 180 180" style="enable-background:new 0 0 180 180;" xml:space="preserve">
<style type="text/css">
	.st0{fill:none;}
	.st1{fill:#FFFFFF;stroke:#000000;stroke-width:4;stroke-miterlimit:10;}
	.st2{fill:#FFFFFF;stroke:#000000;stroke-width:3;stroke-miterlimit:10;}
	.st3{fill:#F8F8F8;stroke:#000000;stroke-width:3;stroke-miterlimit:10;}
</style>
<path class="st0" d="M0,0v180h11.2l0,0c0.2-1.8,0.5-3.5,0.7-5.3c0.6-2.6,1.8-4.9,3.6-6.8c1.4-2.2,3.3-3.9,5.6-5.2
	c0.8-0.5,1.7-1,2.5-1.3c0.2-0.1,0.3-0.2,0.5-0.4c1.6-0.9,3.2-1.6,4.9-2c2.3-0.9,4.7-1.3,7.2-1.4c1.8,0.2,3.5,0.5,5.3,0.7
	c2.6,0.6,4.9,1.8,6.8,3.6c2.2,1.4,3.9,3.3,5.2,5.6c1.5,2.3,2.3,4.8,2.4,7.4c0.4,1.7,0.5,3.3,0.3,5H180V0H0z"/>
<path class="st1" d="M56.9,93.8c4-4.1,14.5,10.4,22.1,7.6c7.1-1.9,12.1-9.1,12.1-9.1c0.2,5-0.4,10.1-1.9,14.9
	c-2.5,7-8.8,13.2-14.8,19.2c-1.2,1.2-2.3,2.3-3.5,3.5c-4.2,4.3-5.7,6.7-6.3,7.7c-4.2,7.5-5.4,12.3-5.8,14.5c-0.5,3-0.7,6.1-0.4,9.2
	h102.9v-17.2c0-14.7-0.6-33.8-5.2-50.3c-3.7-13-10.6-26.3-18.4-35.5c-10.9-13-29.4-20.9-43.4-21.7c-3.3-0.2-6.7-0.2-10,0v-0.1
	C72,36.8,60.1,39.4,49,45.3l-0.3,0.3c-0.8,0.8-1.6,1.6-2.3,2.4l-0.3,0.3c-0.4,0.5-0.8,1-1.1,1.3c-0.9,1-1.7,2.1-2.4,3.2
	c-0.2,0.4-0.8,1.3-1.6,2.5c-1.4,2.1-2.2,5.2-2.4,9"/>
<path class="st2" d="M61.8,108.9l-0.3,0.3C61.6,109.1,61.6,109,61.8,108.9"/>
<path d="M163,144.1c0-14.8-0.6-34-5.2-50.7c-3.8-13.2-10.8-26.7-18.7-36c-12-14.3-31.5-21.5-44.5-22.2c-3-0.2-6-0.2-9-0.1
	c-0.1-0.2-0.2-0.4-0.2-0.6c-0.8,0.6-1.7,1.2-2.6,1.8c0,0.1,0.1,0.2,0.1,0.3l0.6,1.7l1.1-0.1c3.3-0.2,6.5-0.2,9.8,0
	c12.3,0.6,30.9,7.5,42.3,21.1c7.6,9,14.4,22.1,18.1,34.9c4.5,16.3,5.1,35.2,5.1,49.9v15.7H60h-0.1c-0.1-2.5,0.1-5,0.5-7.5
	c0.3-2,1.5-6.7,5.6-14c0.4-0.8,1.8-3.1,6-7.4c1.1-1.1,2.3-2.3,3.5-3.5c6.1-6.1,12.5-12.4,15.1-19.7c1.6-5,2.2-10.3,2-15.6L92.2,88
	l-2.4,3.4c0,0.1-4.7,6.7-11.2,8.5h-0.1c-2.1,0.8-4,1.3-5.8,1.9c-4.8,1.5-8.9,2.7-12,6l1.5,2.9c0.2-0.2,0.4-0.5,0.6-0.7
	c2.6-2.7,6.2-3.8,10.8-5.2c1.8-0.5,3.8-1.2,5.9-1.9c3.9-1.2,7.4-3.5,10.1-6.4c-0.1,3.5-0.7,7-1.8,10.3c-2.4,6.6-8.5,12.7-14.4,18.6
	c-1.2,1.2-2.3,2.3-3.5,3.5c-4.1,4.2-5.8,6.7-6.5,8c-4.3,7.8-5.6,12.8-5.9,15c-0.6,3.2-0.7,6.5-0.4,9.7l0.2,1.3H163V144.1z"/>
<path d="M91.1,93.8c-0.8,0-1.5-0.7-1.5-1.5c0-0.3,0.1-0.5,0.2-0.7c1.8-3.6,2.8-7.5,3.1-11.4c0-0.8,0.7-1.4,1.6-1.4c0,0,0,0,0.1,0
	c0.8,0.1,1.4,0.8,1.4,1.6l0,0c-0.3,4.4-1.5,8.7-3.5,12.7C92.1,93.5,91.6,93.8,91.1,93.8z"/>
<path class="st1" d="M93.5,69.2c3.3,24.6,1.7,25,7.3,35C157.8,93.4,180,73,159,30.7c-34.2-14.1-34.2-14.1-73.9,6.9"/>
<path class="st3" d="M38.6,116L38.6,116"/>
<path class="st1" d="M39.4,63.6c-5.7,7.7-10.1,16.3-13,25.4c-2.4,7.7-3.5,15.6-3.4,23.7c0,9,1.7,17.8,4.8,26.2
	c1,2.2,1.4,4.6,1.1,6.9c-0.2,1.4-1.5,7.6-1.5,7.6s4.9,3.3,8.7,3.5h1.2v0.3c5-6.2,10.3-12.3,9.7-20.6c-2-6.2-4.6-14.3-4-21.8
	c0.1-0.7,0.1-1.4,0.2-2.1c4.1-0.2,9.4-18.1,13.5-19"/>
<path class="st1" d="M72.3,99.7l-15.8-7c0,0-2.9,7.9-10.3,11.1c-6.4,2.8-11.3,2.8-14,2.4c-3.2-0.5-5,2.5-1.4,5.4
	c5.3,4.3,18.2,4.5,27.8,0.1C64.3,109.2,69,105,72.3,99.7z"/>
<path d="M47.1,68l10-8.6c3.4-2.8,12,8.7,8.2,8.7"/>
</svg>
